<svg xmlns="http://www.w3.org/2000/svg" viewBox="0 0 192 192">
  <defs>
    <radialGradient id="bg" cx="50%" cy="40%" r="60%">
      <stop offset="0%" stop-color="#fbf9f4"/>
      <stop offset="100%" stop-color="#f0ebe0"/>
    </radialGradient>
    <radialGradient id="ghost" cx="50%" cy="40%" r="50%">
      <stop offset="0%" stop-color="#d8d2ee"/>
      <stop offset="100%" stop-color="#9089c2"/>
    </radialGradient>
  </defs>
  <rect width="192" height="192" rx="42" fill="url(#bg)"/>
  <!-- ghost shape -->
  <path d="M96 40
           C 64 40, 50 64, 50 92
           L 50 138
           C 50 144, 56 146, 60 142
           L 70 132
           C 73 129, 78 129, 81 132
           L 90 142
           C 93 145, 98 145, 101 142
           L 110 132
           C 113 129, 118 129, 121 132
           L 131 142
           C 135 146, 142 144, 142 138
           L 142 92
           C 142 64, 128 40, 96 40 Z"
        fill="url(#ghost)" opacity="0.95"/>
  <!-- eyes -->
  <ellipse cx="82" cy="86" rx="4" ry="6" fill="#3a3a44"/>
  <ellipse cx="110" cy="86" rx="4" ry="6" fill="#3a3a44"/>
  <!-- mouth (small o) -->
  <ellipse cx="96" cy="106" rx="3" ry="4" fill="#3a3a44" opacity="0.7"/>
</svg>
